<svg width="539" height="339" viewBox="0 0 539 339" fill="none" xmlns="http://www.w3.org/2000/svg">
<path d="M200.373 139H100.243V239H200.373V139Z" fill="#DB6526"/>
<path d="M539 0H200V339H539V0Z" fill="#4B664D"/>
<path d="M100 41H0V141H100V41Z" fill="#2E363C"/>
<path d="M364.044 143.391C364.044 146.329 363.173 149.2 361.541 151.643C359.909 154.085 357.59 155.989 354.876 157.113C352.162 158.237 349.176 158.531 346.295 157.958C343.414 157.385 340.767 155.97 338.69 153.893C336.613 151.816 335.198 149.17 334.625 146.289C334.052 143.408 334.346 140.421 335.47 137.708C336.594 134.994 338.498 132.674 340.941 131.042C343.383 129.41 346.255 128.539 349.192 128.539C353.131 128.539 356.909 130.104 359.694 132.889C362.479 135.674 364.044 139.452 364.044 143.391Z" stroke="#D1C7B7" stroke-width="4" stroke-linejoin="bevel"/>
<path d="M364.044 174.446C364.044 177.383 363.173 180.255 361.541 182.697C359.909 185.14 357.59 187.043 354.876 188.168C352.162 189.292 349.176 189.586 346.295 189.013C343.414 188.44 340.767 187.025 338.69 184.948C336.613 182.871 335.198 180.224 334.625 177.343C334.052 174.462 334.346 171.476 335.47 168.762C336.594 166.048 338.498 163.729 340.941 162.097C343.383 160.465 346.255 159.594 349.192 159.594C353.131 159.594 356.909 161.158 359.694 163.944C362.479 166.729 364.044 170.507 364.044 174.446Z" stroke="#D1C7B7" stroke-width="4" stroke-linejoin="bevel"/>
<path d="M348.853 141.434V211.158" stroke="#D1C7B7" stroke-width="4" stroke-linejoin="bevel"/>
<path d="M405.492 143.391C405.493 146.331 404.623 149.205 402.991 151.65C401.358 154.095 399.037 156.001 396.322 157.127C393.606 158.253 390.617 158.548 387.734 157.975C384.851 157.402 382.202 155.986 380.123 153.907C378.044 151.829 376.629 149.18 376.056 146.297C375.483 143.413 375.778 140.425 376.903 137.709C378.029 134.993 379.935 132.672 382.38 131.04C384.825 129.408 387.7 128.537 390.639 128.539C394.578 128.539 398.356 130.104 401.141 132.889C403.927 135.674 405.492 139.452 405.492 143.391Z" stroke="#D1C7B7" stroke-width="4" stroke-linejoin="bevel"/>
<path d="M405.492 174.446C405.493 177.386 404.623 180.26 402.991 182.705C401.358 185.15 399.037 187.056 396.322 188.182C393.606 189.308 390.617 189.603 387.734 189.03C384.851 188.456 382.202 187.041 380.123 184.962C378.044 182.883 376.629 180.235 376.056 177.351C375.483 174.468 375.778 171.479 376.903 168.763C378.029 166.048 379.935 163.727 382.38 162.095C384.825 160.462 387.7 159.592 390.639 159.594C394.578 159.594 398.356 161.158 401.141 163.944C403.927 166.729 405.492 170.507 405.492 174.446Z" stroke="#D1C7B7" stroke-width="4" stroke-linejoin="bevel"/>
<path d="M390.302 141.434V211.158" stroke="#D1C7B7" stroke-width="4" stroke-linejoin="bevel"/>
</svg>
