<svg width="440" height="439" viewBox="0 0 440 439" fill="none" xmlns="http://www.w3.org/2000/svg">
<path d="M440 100H100V439H440V100Z" fill="#AFAAA0"/>
<path d="M200 0H0V200H200V0Z" fill="#DAC8BA"/>
<path d="M238.307 303.318H209.259C205.341 303.319 201.46 302.548 197.84 301.049C194.219 299.55 190.929 297.352 188.158 294.581C185.388 291.81 183.19 288.52 181.69 284.9C180.191 281.279 179.42 277.399 179.421 273.48V244.433H208.468C212.386 244.432 216.266 245.203 219.886 246.702C223.506 248.2 226.796 250.398 229.567 253.168C232.337 255.938 234.535 259.227 236.035 262.847C237.535 266.466 238.307 270.346 238.307 274.264V303.318Z" stroke="white" stroke-width="4.28571" stroke-linejoin="bevel"/>
<path d="M238.314 303.314L179.421 244.421" stroke="white" stroke-width="4.28571" stroke-linejoin="bevel"/>
<path d="M181.907 281.718H216.204V244.773" stroke="white" stroke-width="4.28571" stroke-linejoin="bevel"/>
<path d="M258.168 271V253.936C259.496 253.808 260.784 253.744 262.032 253.744C263.712 253.744 265.056 254.136 266.064 254.92C267.088 255.704 267.6 256.888 267.6 258.472C267.6 260.04 266.904 261.336 265.512 262.36C264.136 263.368 262.488 263.872 260.568 263.872C260.488 263.872 260.4 263.872 260.304 263.872V263.08C260.368 263.08 260.424 263.08 260.472 263.08C262.056 263.08 263.432 262.664 264.6 261.832C265.768 261 266.352 259.92 266.352 258.592C266.352 257.248 265.944 256.28 265.128 255.688C264.312 255.08 263.216 254.776 261.84 254.776C261.12 254.776 260.28 254.808 259.32 254.872V271H258.168ZM271.281 265.6L269.049 271H267.921L274.449 255.328H275.097L281.673 271H280.449L278.193 265.6H271.281ZM274.713 257.104C274.473 257.824 274.257 258.424 274.065 258.904L271.665 264.664H277.809L275.433 258.928C275.065 258.032 274.825 257.424 274.713 257.104ZM295.687 269.392C294.631 270.624 293.023 271.24 290.863 271.24C288.703 271.24 287.095 270.624 286.039 269.392C284.983 268.16 284.455 266.456 284.455 264.28V255.424H285.559V264.28C285.559 268.264 287.327 270.256 290.863 270.256C294.399 270.256 296.167 268.264 296.167 264.28V255.424H297.271V264.28C297.271 266.456 296.743 268.16 295.687 269.392ZM302.88 271V255.424H303.984V269.992H311.136V271H302.88ZM315.179 265.6L312.947 271H311.819L318.347 255.328H318.995L325.571 271H324.347L322.091 265.6H315.179ZM318.611 257.104C318.371 257.824 318.155 258.424 317.963 258.904L315.563 264.664H321.707L319.331 258.928C318.963 258.032 318.723 257.424 318.611 257.104ZM263.664 296.16C265.92 296.16 267.728 295.552 269.088 294.336C270.464 293.104 271.152 291.256 271.152 288.792C271.152 286.328 270.376 284.368 268.824 282.912C267.288 281.456 265.384 280.728 263.112 280.728C261.656 280.728 260.392 280.768 259.32 280.848V295.968C260.36 296.096 261.808 296.16 263.664 296.16ZM263.112 279.672C265.752 279.672 267.96 280.496 269.736 282.144C271.512 283.776 272.4 286 272.4 288.816C272.4 290.24 272.168 291.504 271.704 292.608C271.256 293.696 270.632 294.568 269.832 295.224C268.184 296.552 266.128 297.216 263.664 297.216C262.048 297.216 260.216 297.128 258.168 296.952V279.84C259.8 279.728 261.448 279.672 263.112 279.672ZM284.338 297.24C282.114 297.24 280.25 296.464 278.746 294.912C277.242 293.36 276.49 291.464 276.49 289.224C276.49 286.968 277.242 285.064 278.746 283.512C280.25 281.96 282.114 281.184 284.338 281.184C286.562 281.184 288.426 281.96 289.93 283.512C291.434 285.064 292.186 286.968 292.186 289.224C292.186 291.464 291.434 293.36 289.93 294.912C288.426 296.464 286.562 297.24 284.338 297.24ZM284.338 282.168C282.418 282.168 280.818 282.848 279.538 284.208C278.274 285.568 277.642 287.24 277.642 289.224C277.642 291.192 278.274 292.856 279.538 294.216C280.818 295.56 282.418 296.232 284.338 296.232C286.274 296.232 287.874 295.56 289.138 294.216C290.402 292.856 291.034 291.192 291.034 289.224C291.034 287.24 290.402 285.568 289.138 284.208C287.874 282.848 286.274 282.168 284.338 282.168ZM296.997 297V281.328H297.525L307.749 293.088C308.117 293.504 308.453 293.92 308.757 294.336C309.077 294.736 309.245 294.944 309.261 294.96C309.229 294.576 309.213 293.824 309.213 292.704V281.424H310.317V297.096H309.789L299.373 285.144L298.053 283.536C298.085 283.856 298.101 284.608 298.101 285.792V297H296.997ZM321.067 296.184C323.115 296.184 324.755 295.632 325.987 294.528C327.235 293.424 327.859 291.76 327.859 289.536C327.859 287.312 327.155 285.544 325.747 284.232C324.355 282.92 322.635 282.264 320.587 282.264C319.131 282.264 318.011 282.296 317.227 282.36V296.016C318.187 296.128 319.467 296.184 321.067 296.184ZM320.587 281.28C322.987 281.28 324.987 282.024 326.587 283.512C328.203 284.984 329.011 286.992 329.011 289.536C329.011 292.08 328.267 293.992 326.779 295.272C325.307 296.552 323.403 297.192 321.067 297.192C319.451 297.192 317.787 297.112 316.075 296.952V281.424C317.355 281.328 318.859 281.28 320.587 281.28ZM340.706 297.24C338.482 297.24 336.618 296.464 335.114 294.912C333.61 293.36 332.858 291.464 332.858 289.224C332.858 286.968 333.61 285.064 335.114 283.512C336.618 281.96 338.482 281.184 340.706 281.184C342.93 281.184 344.794 281.96 346.298 283.512C347.802 285.064 348.554 286.968 348.554 289.224C348.554 291.464 347.802 293.36 346.298 294.912C344.794 296.464 342.93 297.24 340.706 297.24ZM340.706 282.168C338.786 282.168 337.186 282.848 335.906 284.208C334.642 285.568 334.01 287.24 334.01 289.224C334.01 291.192 334.642 292.856 335.906 294.216C337.186 295.56 338.786 296.232 340.706 296.232C342.641 296.232 344.242 295.56 345.506 294.216C346.77 292.856 347.402 291.192 347.402 289.224C347.402 287.24 346.77 285.568 345.506 284.208C344.242 282.848 342.641 282.168 340.706 282.168ZM353.364 297V281.328H353.892L364.116 293.088C364.484 293.504 364.82 293.92 365.124 294.336C365.444 294.736 365.612 294.944 365.628 294.96C365.596 294.576 365.58 293.824 365.58 292.704V281.424H366.684V297.096H366.156L355.74 285.144L354.42 283.536C354.452 283.856 354.468 284.608 354.468 285.792V297H353.364Z" fill="white"/>
<path d="M200.129 100H100V200H200.129V100Z" fill="#DEE0E0"/>
</svg>
