<svg width="165" height="120" viewBox="0 0 165 120" fill="none" xmlns="http://www.w3.org/2000/svg">
<path d="M165 0H0V120H165V0Z" fill="url(#paint0_linear_28_46)"/>
<path d="M58.3304 76.0007H41.5753C39.3149 76.0013 37.0765 75.4988 34.9881 74.5218C32.8996 73.5447 31.0021 72.1124 29.4037 70.3066C27.8053 68.5008 26.5376 66.3569 25.6728 63.9974C24.8081 61.6379 24.3632 59.109 24.3638 56.5552V37.6252H41.1189C43.3789 37.6246 45.6169 38.127 47.7051 39.1037C49.7932 40.0804 51.6907 41.5123 53.289 43.3176C54.8873 45.1229 56.1551 47.2663 57.0201 49.6252C57.8851 51.9842 58.3304 54.5126 58.3304 57.066V76.0007Z" stroke="#D1C7B7" stroke-width="4.28571" stroke-linejoin="bevel"/>
<path d="M58.3346 75.9977L24.3638 37.6174" stroke="#D1C7B7" stroke-width="4.28571" stroke-linejoin="bevel"/>
<path d="M25.7976 61.9238H45.5812V37.8469" stroke="#D1C7B7" stroke-width="4.28571" stroke-linejoin="bevel"/>
<path d="M72.6308 54V42.624C73.5161 42.5387 74.3748 42.496 75.2068 42.496C76.3268 42.496 77.2228 42.7573 77.8948 43.28C78.5775 43.8027 78.9188 44.592 78.9188 45.648C78.9188 46.6933 78.4548 47.5573 77.5268 48.24C76.6095 48.912 75.5108 49.248 74.2308 49.248C74.1775 49.248 74.1188 49.248 74.0548 49.248V48.72C74.0975 48.72 74.1348 48.72 74.1668 48.72C75.2228 48.72 76.1401 48.4427 76.9188 47.888C77.6975 47.3333 78.0868 46.6133 78.0868 45.728C78.0868 44.832 77.8148 44.1867 77.2708 43.792C76.7268 43.3867 75.9961 43.184 75.0788 43.184C74.5988 43.184 74.0388 43.2053 73.3988 43.248V54H72.6308ZM81.3727 50.4L79.8847 54H79.1327L83.4847 43.552H83.9167L88.3007 54H87.4847L85.9807 50.4H81.3727ZM83.6607 44.736C83.5007 45.216 83.3567 45.616 83.2287 45.936L81.6287 49.776H85.7247L84.1407 45.952C83.8953 45.3547 83.7353 44.9493 83.6607 44.736ZM97.6433 52.928C96.9393 53.7493 95.8673 54.16 94.4273 54.16C92.9873 54.16 91.9153 53.7493 91.2113 52.928C90.5073 52.1067 90.1553 50.9707 90.1553 49.52V43.616H90.8913V49.52C90.8913 52.176 92.07 53.504 94.4273 53.504C96.7846 53.504 97.9633 52.176 97.9633 49.52V43.616H98.6993V49.52C98.6993 50.9707 98.3473 52.1067 97.6433 52.928ZM102.439 54V43.616H103.175V53.328H107.943V54H102.439ZM110.638 50.4L109.15 54H108.398L112.75 43.552H113.182L117.566 54H116.75L115.246 50.4H110.638ZM112.926 44.736C112.766 45.216 112.622 45.616 112.494 45.936L110.894 49.776H114.99L113.406 45.952C113.161 45.3547 113.001 44.9493 112.926 44.736ZM76.2948 70.44C77.7988 70.44 79.0041 70.0347 79.9108 69.224C80.8281 68.4027 81.2868 67.1707 81.2868 65.528C81.2868 63.8853 80.7695 62.5787 79.7348 61.608C78.7108 60.6373 77.4415 60.152 75.9268 60.152C74.9561 60.152 74.1135 60.1787 73.3988 60.232V70.312C74.0921 70.3973 75.0575 70.44 76.2948 70.44ZM75.9268 59.448C77.6868 59.448 79.1588 59.9973 80.3428 61.096C81.5268 62.184 82.1188 63.6667 82.1188 65.544C82.1188 66.4933 81.9641 67.336 81.6548 68.072C81.3561 68.7973 80.9401 69.3787 80.4068 69.816C79.3081 70.7013 77.9375 71.144 76.2948 71.144C75.2175 71.144 73.9961 71.0853 72.6308 70.968V59.56C73.7188 59.4853 74.8175 59.448 75.9268 59.448ZM90.0777 71.16C88.595 71.16 87.3523 70.6427 86.3497 69.608C85.347 68.5733 84.8457 67.3093 84.8457 65.816C84.8457 64.312 85.347 63.0427 86.3497 62.008C87.3523 60.9733 88.595 60.456 90.0777 60.456C91.5603 60.456 92.803 60.9733 93.8057 62.008C94.8083 63.0427 95.3097 64.312 95.3097 65.816C95.3097 67.3093 94.8083 68.5733 93.8057 69.608C92.803 70.6427 91.5603 71.16 90.0777 71.16ZM90.0777 61.112C88.7977 61.112 87.731 61.5653 86.8777 62.472C86.035 63.3787 85.6137 64.4933 85.6137 65.816C85.6137 67.128 86.035 68.2373 86.8777 69.144C87.731 70.04 88.7977 70.488 90.0777 70.488C91.3683 70.488 92.435 70.04 93.2777 69.144C94.1203 68.2373 94.5417 67.128 94.5417 65.816C94.5417 64.4933 94.1203 63.3787 93.2777 62.472C92.435 61.5653 91.3683 61.112 90.0777 61.112ZM98.5169 71V60.552H98.8689L105.685 68.392C105.93 68.6693 106.154 68.9467 106.357 69.224C106.57 69.4907 106.682 69.6293 106.693 69.64C106.672 69.384 106.661 68.8827 106.661 68.136V60.616H107.397V71.064H107.045L100.101 63.096L99.2209 62.024C99.2423 62.2373 99.2529 62.7387 99.2529 63.528V71H98.5169ZM114.564 70.456C115.929 70.456 117.022 70.088 117.844 69.352C118.676 68.616 119.092 67.5067 119.092 66.024C119.092 64.5413 118.622 63.3627 117.684 62.488C116.756 61.6133 115.609 61.176 114.244 61.176C113.273 61.176 112.526 61.1973 112.004 61.24V70.344C112.644 70.4187 113.497 70.456 114.564 70.456ZM114.244 60.52C115.844 60.52 117.177 61.016 118.244 62.008C119.321 62.9893 119.86 64.328 119.86 66.024C119.86 67.72 119.364 68.9947 118.372 69.848C117.39 70.7013 116.121 71.128 114.564 71.128C113.486 71.128 112.377 71.0747 111.236 70.968V60.616C112.089 60.552 113.092 60.52 114.244 60.52ZM127.656 71.16C126.173 71.16 124.93 70.6427 123.928 69.608C122.925 68.5733 122.424 67.3093 122.424 65.816C122.424 64.312 122.925 63.0427 123.928 62.008C124.93 60.9733 126.173 60.456 127.656 60.456C129.138 60.456 130.381 60.9733 131.384 62.008C132.386 63.0427 132.888 64.312 132.888 65.816C132.888 67.3093 132.386 68.5733 131.384 69.608C130.381 70.6427 129.138 71.16 127.656 71.16ZM127.656 61.112C126.376 61.112 125.309 61.5653 124.456 62.472C123.613 63.3787 123.192 64.4933 123.192 65.816C123.192 67.128 123.613 68.2373 124.456 69.144C125.309 70.04 126.376 70.488 127.656 70.488C128.946 70.488 130.013 70.04 130.856 69.144C131.698 68.2373 132.12 67.128 132.12 65.816C132.12 64.4933 131.698 63.3787 130.856 62.472C130.013 61.5653 128.946 61.112 127.656 61.112ZM136.095 71V60.552H136.447L143.263 68.392C143.508 68.6693 143.732 68.9467 143.935 69.224C144.148 69.4907 144.26 69.6293 144.271 69.64C144.25 69.384 144.239 68.8827 144.239 68.136V60.616H144.975V71.064H144.623L137.679 63.096L136.799 62.024C136.82 62.2373 136.831 62.7387 136.831 63.528V71H136.095Z" fill="#D1C7B7"/>
<defs>
<linearGradient id="paint0_linear_28_46" x1="52.5" y1="7.52864e-06" x2="165" y2="131" gradientUnits="userSpaceOnUse">
<stop stop-color="#0E3911"/>
<stop offset="1" stop-color="#093E0D" stop-opacity="0.56"/>
</linearGradient>
</defs>
</svg>
