<svg width="203" height="70" viewBox="0 0 203 70" fill="none" xmlns="http://www.w3.org/2000/svg">
<path d="M62.3065 62.3184H33.2595C29.3408 62.3194 25.4603 61.5482 21.8398 60.049C18.2191 58.5498 14.9294 56.352 12.1584 53.5811C9.38752 50.8102 7.18968 47.5204 5.69048 43.8999C4.19139 40.2793 3.42017 36.3989 3.42114 32.4801V3.43311H32.4682C36.3863 3.43213 40.2662 4.20299 43.8862 5.70171C47.5063 7.20043 50.7958 9.39766 53.5666 12.1677C56.3375 14.9379 58.5354 18.2268 60.035 21.8465C61.5346 25.4662 62.3065 29.3459 62.3065 33.264V62.3184Z" stroke="#2E363C" stroke-width="4.28571" stroke-linejoin="bevel"/>
<path d="M62.3138 62.3141L3.42114 3.42139" stroke="#2E363C" stroke-width="4.28571" stroke-linejoin="bevel"/>
<path d="M5.90723 40.7182H40.2045V3.77344" stroke="#2E363C" stroke-width="4.28571" stroke-linejoin="bevel"/>
<path d="M82.168 30V12.936C83.496 12.808 84.784 12.744 86.032 12.744C87.712 12.744 89.056 13.136 90.064 13.92C91.088 14.704 91.6 15.888 91.6 17.472C91.6 19.04 90.904 20.336 89.512 21.36C88.136 22.368 86.488 22.872 84.568 22.872C84.488 22.872 84.4 22.872 84.304 22.872V22.08C84.368 22.08 84.424 22.08 84.472 22.08C86.056 22.08 87.432 21.664 88.6 20.832C89.768 20 90.352 18.92 90.352 17.592C90.352 16.248 89.944 15.28 89.128 14.688C88.312 14.08 87.216 13.776 85.84 13.776C85.12 13.776 84.28 13.808 83.32 13.872V30H82.168ZM95.2808 24.6L93.0488 30H91.9208L98.4488 14.328H99.0968L105.673 30H104.449L102.193 24.6H95.2808ZM98.7128 16.104C98.4728 16.824 98.2568 17.424 98.0648 17.904L95.6648 23.664H101.809L99.4328 17.928C99.0648 17.032 98.8248 16.424 98.7128 16.104ZM119.687 28.392C118.631 29.624 117.023 30.24 114.863 30.24C112.703 30.24 111.095 29.624 110.039 28.392C108.983 27.16 108.455 25.456 108.455 23.28V14.424H109.559V23.28C109.559 27.264 111.327 29.256 114.863 29.256C118.399 29.256 120.167 27.264 120.167 23.28V14.424H121.271V23.28C121.271 25.456 120.743 27.16 119.687 28.392ZM126.88 30V14.424H127.984V28.992H135.136V30H126.88ZM139.179 24.6L136.947 30H135.819L142.347 14.328H142.995L149.571 30H148.347L146.091 24.6H139.179ZM142.611 16.104C142.371 16.824 142.155 17.424 141.963 17.904L139.563 23.664H145.707L143.331 17.928C142.963 17.032 142.723 16.424 142.611 16.104ZM87.664 55.16C89.92 55.16 91.728 54.552 93.088 53.336C94.464 52.104 95.152 50.256 95.152 47.792C95.152 45.328 94.376 43.368 92.824 41.912C91.288 40.456 89.384 39.728 87.112 39.728C85.656 39.728 84.392 39.768 83.32 39.848V54.968C84.36 55.096 85.808 55.16 87.664 55.16ZM87.112 38.672C89.752 38.672 91.96 39.496 93.736 41.144C95.512 42.776 96.4 45 96.4 47.816C96.4 49.24 96.168 50.504 95.704 51.608C95.256 52.696 94.632 53.568 93.832 54.224C92.184 55.552 90.128 56.216 87.664 56.216C86.048 56.216 84.216 56.128 82.168 55.952V38.84C83.8 38.728 85.448 38.672 87.112 38.672ZM108.338 56.24C106.114 56.24 104.25 55.464 102.746 53.912C101.242 52.36 100.49 50.464 100.49 48.224C100.49 45.968 101.242 44.064 102.746 42.512C104.25 40.96 106.114 40.184 108.338 40.184C110.562 40.184 112.426 40.96 113.93 42.512C115.434 44.064 116.186 45.968 116.186 48.224C116.186 50.464 115.434 52.36 113.93 53.912C112.426 55.464 110.562 56.24 108.338 56.24ZM108.338 41.168C106.418 41.168 104.818 41.848 103.538 43.208C102.274 44.568 101.642 46.24 101.642 48.224C101.642 50.192 102.274 51.856 103.538 53.216C104.818 54.56 106.418 55.232 108.338 55.232C110.274 55.232 111.874 54.56 113.138 53.216C114.402 51.856 115.034 50.192 115.034 48.224C115.034 46.24 114.402 44.568 113.138 43.208C111.874 41.848 110.274 41.168 108.338 41.168ZM120.997 56V40.328H121.525L131.749 52.088C132.117 52.504 132.453 52.92 132.757 53.336C133.077 53.736 133.245 53.944 133.261 53.96C133.229 53.576 133.213 52.824 133.213 51.704V40.424H134.317V56.096H133.789L123.373 44.144L122.053 42.536C122.085 42.856 122.101 43.608 122.101 44.792V56H120.997ZM145.067 55.184C147.115 55.184 148.755 54.632 149.987 53.528C151.235 52.424 151.859 50.76 151.859 48.536C151.859 46.312 151.155 44.544 149.747 43.232C148.355 41.92 146.635 41.264 144.587 41.264C143.131 41.264 142.011 41.296 141.227 41.36V55.016C142.187 55.128 143.467 55.184 145.067 55.184ZM144.587 40.28C146.987 40.28 148.987 41.024 150.587 42.512C152.203 43.984 153.011 45.992 153.011 48.536C153.011 51.08 152.267 52.992 150.779 54.272C149.307 55.552 147.403 56.192 145.067 56.192C143.451 56.192 141.787 56.112 140.075 55.952V40.424C141.355 40.328 142.859 40.28 144.587 40.28ZM164.706 56.24C162.482 56.24 160.618 55.464 159.114 53.912C157.61 52.36 156.858 50.464 156.858 48.224C156.858 45.968 157.61 44.064 159.114 42.512C160.618 40.96 162.482 40.184 164.706 40.184C166.93 40.184 168.794 40.96 170.298 42.512C171.802 44.064 172.554 45.968 172.554 48.224C172.554 50.464 171.802 52.36 170.298 53.912C168.794 55.464 166.93 56.24 164.706 56.24ZM164.706 41.168C162.786 41.168 161.186 41.848 159.906 43.208C158.642 44.568 158.01 46.24 158.01 48.224C158.01 50.192 158.642 51.856 159.906 53.216C161.186 54.56 162.786 55.232 164.706 55.232C166.641 55.232 168.242 54.56 169.506 53.216C170.77 51.856 171.402 50.192 171.402 48.224C171.402 46.24 170.77 44.568 169.506 43.208C168.242 41.848 166.641 41.168 164.706 41.168ZM177.364 56V40.328H177.892L188.116 52.088C188.484 52.504 188.82 52.92 189.124 53.336C189.444 53.736 189.612 53.944 189.628 53.96C189.596 53.576 189.58 52.824 189.58 51.704V40.424H190.684V56.096H190.156L179.74 44.144L178.42 42.536C178.452 42.856 178.468 43.608 178.468 44.792V56H177.364Z" fill="#2E363C"/>
</svg>
